<?xml version="1.0" encoding="UTF-8"?>
<!DOCTYPE svg PUBLIC "-//W3C//DTD SVG 1.1//EN" "http://www.w3.org/Graphics/SVG/1.1/DTD/svg11.dtd">
<!-- Creator: CorelDRAW 2018 (64-Bit) -->
<svg xmlns="http://www.w3.org/2000/svg" xml:space="preserve" width="3.6in" height="3.6in" version="1.1" style="shape-rendering:geometricPrecision; text-rendering:geometricPrecision; image-rendering:optimizeQuality; fill-rule:evenodd; clip-rule:evenodd"
viewBox="0 0 3600 3600"
 xmlns:xlink="http://www.w3.org/1999/xlink">
 <defs>
  <style type="text/css">
   <![CDATA[
    .fil13 {fill:#1A4877}
    .fil1 {fill:#1B4B7C}
    .fil17 {fill:#224B78}
    .fil5 {fill:#2374C4}
    .fil34 {fill:#304555}
    .fil19 {fill:#3790CE}
    .fil20 {fill:#398AC9}
    .fil25 {fill:#4897CA}
    .fil6 {fill:#4CABDB}
    .fil11 {fill:#52ADDC}
    .fil26 {fill:#54B2DC}
    .fil16 {fill:#6EC1DD}
    .fil15 {fill:#74C2DD}
    .fil2 {fill:#89D6E6}
    .fil21 {fill:#8CD5E5}
    .fil4 {fill:#8CD8E6}
    .fil33 {fill:#9BA69E}
    .fil28 {fill:#B1E3ED}
    .fil32 {fill:#B6B190}
    .fil18 {fill:#BBE7F7}
    .fil8 {fill:#C8EAF6}
    .fil35 {fill:#CBB58A}
    .fil24 {fill:#EBEFE7}
    .fil27 {fill:#ECB26A}
    .fil23 {fill:#F6D58D}
    .fil14 {fill:#F88949}
    .fil29 {fill:#F8C755}
    .fil31 {fill:#F8CA71}
    .fil30 {fill:#F9A755}
    .fil36 {fill:#FAEED7}
    .fil12 {fill:#FBF6E8}
    .fil10 {fill:#FCB24D}
    .fil22 {fill:#FCC430}
    .fil7 {fill:#FD9B44}
    .fil9 {fill:#FDB654}
    .fil3 {fill:#FDFDFD}
    .fil0 {fill:url(#id0)}
   ]]>
  </style>
  <radialGradient id="id0" gradientUnits="userSpaceOnUse" gradientTransform="matrix(1.02022 -0 -0 1.02041 -37 -15)" cx="1831.9" cy="715.39" r="774.62" fx="1831.9" fy="715.39">
   <stop offset="0" style="stop-opacity:1; stop-color:#57C8EE"/>
   <stop offset="0.568627" style="stop-opacity:1; stop-color:#4EBAEA"/>
   <stop offset="1" style="stop-opacity:1; stop-color:#2C86DA"/>
  </radialGradient>
 </defs>
 <g id="Layer_x0020_1">
  <metadata id="CorelCorpID_0Corel-Layer"/>
  <g id="_2575268681152">
   <path class="fil0" d="M3382.94 2748.06c21.81,-52.31 6.63,-1364.54 6.46,-1544.07 -0.24,-268.96 19.18,-466.15 -105.76,-669.43 -50.71,-82.5 -112.53,-147.17 -188.69,-201.78 -50.1,-35.93 -200.67,-115.17 -272.38,-108.05l-26.73 -10.47c-48.22,-10.22 -426.72,-6.09 -477.64,-5.94 -463.01,1.39 -970.67,-7.89 -1426.11,-0.3 -26.11,0.44 -94.18,0.83 -114.45,16.53 -102.26,-11.43 -280.6,113.53 -338.29,163.35 -63.54,54.88 -172.34,190.41 -193.46,311.59 -14.34,32.49 -32.92,132.57 -32.91,174.95 0.84,313.35 -1.26,628.13 -2.29,941.65 -0.44,136.78 -15.67,861.85 7,931.36 -7.27,137.29 90.9,312.94 150.78,386.03 71.44,87.18 179.81,177.83 321.31,224.12 149.88,49.02 342.15,34.32 511.83,34.48 181.61,0.19 363.22,-0.3 544.83,-0.2 199.69,0.1 935.25,12.54 1076.71,-13.02 218.31,-39.44 374.1,-169.53 472.86,-342.73 17.49,-30.68 28.68,-56.65 42.27,-92.07 29.06,-75.74 39.17,-116.69 44.63,-196z"/>
   <path class="fil1" d="M2317.81 2889.24l-89.06 68.24c-27.36,17.9 -84.26,55.02 -117.98,49.05 -67.83,-12 -81.22,-213.27 -47.35,-255.52l12.81 -25.72c60.5,-2.13 31,64.4 55.94,110.52 45.15,-20.73 30.7,-92.24 102.96,-99.31l18.61 4.75c5.5,41.53 -8.55,59.55 -11.13,99.97 52.63,-10.01 29.67,-40.41 94,-27.28 14.91,24.53 28.17,58.75 -18.82,75.29zm-775.85 42.89c1.46,50.11 -34.49,86.42 -86.95,70.35 -19.5,-5.98 -39.03,-18.78 -53.54,-27.49 -18.93,-11.37 -38.81,-21.63 -47.77,-36.06 -26.82,-10.08 -45.24,-29.43 -62.54,-48.7 -57.73,-64.3 -8.54,-84.54 31.71,-51.96 20.64,16.69 16.43,19.31 50.44,23.59 2.8,-50.84 -30.46,-89.84 -1.39,-128.02 61.18,2.81 51.17,64.98 92.04,94.75 35.5,-32.8 11.05,-79.8 47.09,-105.78 36.57,8.59 40.5,48.29 43.16,88.44 1.48,22.3 1.53,45.47 0.51,67.79 -1.37,29.86 -1.28,38.8 -12.77,53.09zm159.2 -498.81l-3 -59.4 -1.76 -44.37c92.03,22.59 114.27,28.49 207.51,0.81l-1.3 43.85 -2.31 56.37 -3.82 71.6 -8.7 369.98 3.83 0.02 -5.02 23.28c1.14,64.33 -5.17,88.62 -72.73,92.47 -71.75,4.09 -101.06,-9.48 -96.52,-80.05l-4.4 -86.35 -8.49 -316.3 -3.27 -71.91zm630.71 -100.49c-28.57,6.47 -40.46,32.04 -63.17,50.24l-5.8 51.9 8.49 33.3c11.07,9.68 12.63,13.83 24.31,23.67 11.52,9.7 12.04,5.45 22.55,17.44l24.46 8.24c-8.03,54.54 -31.05,69.5 19.1,116.09 32.93,30.59 73.86,31.37 106.29,50.09 1.15,75.06 -1.41,65.52 -58.03,84.9 -43.8,15 -63.86,4.12 -107.95,-6.39l-12.27 -53.13c-46.96,-53.85 -72.52,-39.43 -126.35,-10.41l-19.84 -15.47c-50.45,-39.93 -104.3,-20.54 -130.94,31.62 -37.43,73.26 -8.61,141.59 -28.11,200.58l-40.02 12.85 16.18 -592.98c5.52,-41.69 7.51,-49.27 39.42,-63.02l217.7 -78.97c54.21,-18.15 253.82,-91.68 301.53,-86.12l2.04 42.95c-0.45,84.48 -7.54,86.52 -65.11,120.23 -41.04,24.02 -80.52,39.2 -124.49,62.41zm-1254.92 -186.23l6.61 -39.26c53.43,-8.64 361.92,106.72 443.07,137.69 84.8,32.37 114.42,31.72 110.55,86.17 17.06,51.66 16.87,505.55 18.05,595.67 -19.1,-4.07 -26.61,-8.22 -39.85,-16.89 -2.39,-15.7 12.05,-360.99 -171.59,-209.7 -25.33,-9.96 -42.5,-30.1 -80,-24.55 -37.47,5.55 -39.38,24.43 -55.69,41.73l-6.5 47.07c-72.57,1.6 -94.98,35.87 -163.96,-15.43l-5.47 -65.3c82.57,-52.68 145.74,-9.98 130.27,-162.59l13.89 -6.9c96.71,-66.41 72.92,-140.2 -29.87,-190.92 -135.59,-66.91 -164.21,-64.74 -169.5,-176.78zm-125.66 21.36c13.97,55.57 102.31,117.39 154.9,147.41 36.24,20.69 67.5,35.6 102.63,52.49 30.93,14.88 83.28,35.94 60.96,77 -51.92,49.03 -109.28,18.39 -167.24,38.44 3.17,30.73 24.02,38.98 51.39,52.23 28.07,11.1 39.68,13.93 46.13,40.63 -46.72,86.8 -212.79,17.04 -263.35,-24.26 -59.93,-48.96 -111.6,-144.19 -118.38,-257.62 -5.39,-76.74 6.93,-249.24 47.65,-291.66l17.65 -41.96c11.7,-33.3 27.22,-49.64 42.73,-76.75 16.82,16.78 47.71,102.55 62.7,131.3 40.22,77.16 25.26,47.14 28.6,163.57 -28.43,-12.68 -33.57,-25.09 -66.35,-10.83zm1772.24 -194.84l19.41 45.52c18.57,32.26 26.93,75.82 32.94,116.18 39.07,135.05 -8.74,298.64 -76.89,378.12 -140.57,163.94 -352.89,93.02 -287.35,42.46 34.91,-25.53 80.13,-25.93 86.87,-66.47 -50.66,-24.54 -112.33,-1.46 -161.39,-44.46 -38.2,-54.02 106.52,-99.78 152.7,-126.81 61.44,-35.99 128.33,-85.67 157.88,-140.56l-8.63 -22.24c-29.99,-1.15 -23.42,10.27 -56.3,23.09 2.61,-94.3 -6.09,-92.55 30.38,-167.76 20.23,-41.74 35.87,-83.09 55.74,-125.94 20.16,17.09 43.47,59.78 54.66,88.87zm-889.39 312.74c12.41,-84.78 181.44,-175.96 271.4,-210.75 59.89,-23.15 118.13,-42.4 183.87,-59.14 62.97,-16.04 109.07,-50.53 154.41,48.07 -169.11,53.52 -306.44,91.05 -466.63,158.33 -54.62,22.94 -78.75,54.41 -143.06,63.49zm-676.96 -222.36c9.82,-26.07 29.85,-42.81 42.43,-68.08 116.74,-4.16 516.46,131.87 568.42,288.76 -43.13,-3.22 -57.54,-11.67 -82.78,-30.17 -44.52,-32.63 -164.2,-72.84 -216.04,-92.46 -104.48,-39.52 -205.59,-63.53 -312.02,-98.05zm-199.32 -1321.81c0.47,-13.81 -3.87,-20.05 8.89,-28.98 20.78,-14.53 -2.7,-8.09 6.34,2.08 55.1,37.31 88.77,68.59 180.08,87.55 239.11,49.65 259.52,-127.05 653.85,-124.06 373.37,2.83 404.87,174.97 646.03,123.55 96.03,-20.47 116.43,-49.32 172.94,-87.87 10.4,-9.11 -13.02,-12.88 12.72,-6.86l6.92 59.7c9.21,98.51 -21.4,185.01 -65.45,241.72 -34.62,44.56 -51,35.03 -19.59,94.24 17.38,32.77 28.85,65.87 46.11,98.16 18.61,63.36 60.63,164.47 54.74,236.18 27.46,65.68 -3.79,266.66 -23.87,341.79 -12.86,48.13 -29.74,98.37 -49.15,139.2 -15.97,33.62 -45.71,100.5 -75.14,117.51 -27.43,-13.96 -58.9,-57.24 -76.6,-85.8 -34.59,-16.8 -43.35,-21.04 -94.72,-9.5 -34.98,7.86 -69.11,16.76 -101.51,26.22 -68.04,19.85 -126.3,45.19 -188.38,65.66 -43.48,28.98 -93.67,47.06 -139.55,77.8 -51.98,34.83 -71.94,70.26 -112.23,101.62 -31.97,-23.91 -45.48,-57.07 -116.59,-104.04 -33.26,-21.96 -109.02,-55.53 -134.11,-75.57 -63.54,-19.87 -124.52,-47.52 -194.07,-67.73 -65.78,-19.11 -142.64,-49.09 -192.26,-12.84 -18.97,31.83 -46.83,69.2 -75.96,84.17 -43.54,-27.05 -97.01,-155.24 -116.65,-224.26 -26.04,-91.55 -42.35,-195.36 -39.77,-296.97 4.44,-111.28 23.41,-233.89 69.13,-323.51l60.18 -128.12c-15.76,-44.81 -89.5,-91.94 -92.14,-176.49 -22.38,-28.75 -18.96,-106.83 -10.19,-144.56zm-8.47 287.66c50.57,36.12 27,52.53 1.91,105.84 -155.51,330.5 -49.58,611.49 -51.3,667.38 -0.56,18.38 -71.87,111.16 -106.27,201.04 -30.92,124.74 -63.49,218.19 -31.12,359.3 40.09,174.72 135.34,229.11 151.37,255.76 24.49,8.26 42.38,23.06 74.76,36.25 25.89,10.55 53.92,16.63 73.93,26.08 11,51.64 0.27,103.47 37.52,125.33 34.33,20.15 95.39,9.94 102.79,54.59 48.53,80.5 75.69,111.58 170.94,169.31 34.11,20.68 81.99,46.43 135.43,35.58 57.49,-11.68 63.64,-44.85 89.17,-86.21 83.57,8.44 81.33,75.91 201.83,74.73 110.27,-1.07 123.72,-67.63 201.75,-76.46 34.11,36.99 28.06,74.22 88.96,86.35 86.01,17.15 184.14,-65.69 241.67,-117.06 15.81,-14.13 28.8,-25.59 42.74,-44.73 7.06,-9.68 11.57,-18.27 16.62,-30.48l17.36 -33.3c25.78,-21.26 76.58,-15.79 101.98,-42.35 43.02,-45.01 -7.58,-100.43 47.43,-122.7 91.42,-37 155.43,-54.35 226.19,-175.36 65.62,-112.2 68.67,-207.72 57.15,-353.91 -9.5,-68.07 -30.74,-131.81 -57.19,-189.84 -15.7,-34.43 -25.02,-51.74 -45.04,-82.64 -65.09,-100.44 -40.4,-37.71 -18.9,-177.08 27.52,-178.47 6.19,-369.9 -61.88,-535.85 -54.05,-131.78 -50.81,-52.14 6.97,-165.02 44.67,-87.26 55.58,-216.76 28.53,-315.16 -10.73,-39.06 -20.96,-56.76 -67.02,-54.17 -37.11,20.89 -49.05,56.42 -99.97,78.52 -197.67,116.69 -281.9,-22.68 -491.85,-58.62 -540.36,-92.52 -632.22,102.43 -793.54,104.3 -94.72,1.09 -179.29,-40.84 -229.01,-89.57 -17.66,-17.31 -60.08,-75.23 -95.67,-15.22 -16.15,27.24 -25.54,93.33 -27.25,129.35 -7.77,162.94 50.86,206.1 59.04,256.01z"/>
   <path class="fil2" d="M930.87 1514.37c22.02,3.76 15.3,-4.82 24.1,24.12 46.17,151.85 33.08,202.26 163.35,374.08 1.87,2.45 17.37,22.28 17.69,22.6 19.57,20.31 -2.53,10.83 27.24,16.25 49.61,-36.26 126.48,-6.28 192.26,12.84 69.55,20.21 130.53,47.86 194.07,67.73l-4.9 -16.2c112.1,-59.01 281.67,-65.35 412.53,-32.98l92.56 28.77c4.42,2.84 13.37,4.15 2.3,20.6 62.08,-20.47 120.34,-45.81 188.38,-65.66 32.4,-9.46 66.54,-18.36 101.51,-26.22 51.38,-11.54 60.13,-7.3 94.72,9.5 24.6,-16.46 63.28,-72.22 79.76,-97.08 74.24,-111.94 90.6,-175.04 124.38,-305.17 8.49,-32.72 18.98,-39.54 24.26,-59.59 -8.32,-5.55 -11.78,-1.46 -20.77,-31.41 -23.86,-79.46 -30.41,-151.61 -72.71,-233.38 -34.64,6.7 -36.93,12.11 -78.45,8.6 34.72,97.04 78.52,149.93 50.12,285.93 -18.64,89.3 -74.33,168.26 -125.69,209.48 -197.05,158.17 -438,56.71 -481.55,-33.3l-21.22 31.92c-10.62,55.61 -64.66,173.39 -131.8,149.56 -39.26,-13.93 -104.37,-112.76 -114,-171.54 1.38,-20.39 3.52,-9.74 -5.85,-13.79 -12.34,62.52 -270.04,217.34 -481.45,38.37 -102.98,-87.19 -155.34,-226.3 -125.78,-367.96 11.14,-53.37 36.07,-81.31 47.64,-123.88 -54.17,-2.69 -78.93,-14.63 -103.57,-45.72 -45.72,89.61 -64.69,212.23 -69.13,323.51z"/>
   <path class="fil3" d="M1254.01 1495.17c-31.52,-101.16 87.35,-198.18 199.51,-179.5 123.86,20.63 203.74,212.08 82.99,184.95 -30.27,-47.06 -28.66,-111.65 -119.62,-108.49 -88.87,3.1 -81.72,67.69 -113.38,110.86l-49.5 -7.82zm-150.44 -258.59c-11.57,42.57 -36.5,70.51 -47.64,123.88 -29.56,141.66 22.8,280.78 125.78,367.96 211.41,178.97 469.11,24.16 481.45,-38.37 -9.52,-59.92 -41.91,-86.88 6.63,-152.37 23.17,-31.25 60.97,-65.8 113.51,-70.91l16.74 -13.83 -13.17 -77.61c-16.06,-30.31 -24.56,-66.32 -44.16,-100.52 -50.74,-88.48 -139.51,-165.87 -241.63,-194.22 -83.13,-23.07 -178.77,-8.53 -243.49,25.06 -86.88,45.09 -97.99,78.14 -154.01,130.93z"/>
   <path class="fil3" d="M2013.85 1501.11c-39.33,-90.33 69.52,-184.51 156.13,-188.28 103.1,-4.5 207.79,88.24 178.31,185.81l-52.26 2.27c-34.33,-49.55 -33.88,-108.45 -119.07,-106.81 -83.28,1.61 -83.73,56.97 -112.44,109.1l-50.68 -2.09zm-200.57 -97.53l-7.9 51.1 21.56 13.81c44.65,7.13 90.07,46.17 108.19,78.25 39.54,70.01 7.59,88.29 0.9,147.15 43.55,90.01 284.5,191.47 481.55,33.3 51.35,-41.22 107.05,-120.18 125.69,-209.48 28.39,-136 -15.41,-188.9 -50.12,-285.93 -47.42,-42.5 -62.3,-89.45 -164.69,-133.03 -159.83,-68.02 -313.81,-13.43 -423.64,108.83 -71.46,79.55 -67.42,140.29 -91.54,195.99z"/>
   <path class="fil4" d="M1740.43 787.2c14.77,-11.25 31.85,-10.3 51.28,-4.84 23.27,42.78 4.03,75.77 -51.46,55.44l0.18 -50.6zm-782.58 -45.51c19.23,24.48 19.12,41.72 38.2,69.48 13.08,19.04 41.01,39.65 45.63,63.19 6.33,1.37 80.75,44.22 100.91,52.68 21.97,9.21 113.86,22.16 139.56,22.69 115,2.4 179.11,9.46 262.63,51.9 68.73,34.91 130.55,81.94 169,147.98 19.16,32.91 100.94,182.57 73.08,225.71l13.17 77.61 -16.74 13.83 43.64 1.72 -21.56 -13.81 7.9 -51.1 -6.12 -18.7c-0.62,-4.47 -0.83,-14.48 -0.63,-19.03 1,-22.93 3.36,-22 7.99,-39.52 121.51,-459.33 463.72,-345.46 621.6,-393.56 105.98,-32.28 149.35,-80.13 192.17,-172.86 20.11,5.54 4.29,-3.1 17.33,6.9l-6.92 -59.7c-25.75,-6.02 -2.33,-2.25 -12.72,6.86 26.6,44.31 -93.01,116.28 -134.15,131.29 -184.72,67.36 -300.26,-31.79 -444.69,-69.24 -161.1,-41.78 -338.61,-37.74 -495.94,4.08 -125.26,33.3 -127.62,46.19 -205.51,70.01 -213.54,65.28 -415.75,-96.6 -372.61,-135.31 -9.04,-10.18 14.44,-16.61 -6.34,-2.08 -12.76,8.93 -8.42,15.17 -8.89,28.98z"/>
   <path class="fil5" d="M1202.95 2860.92c-50.3,27.9 -220.81,37.16 -236.49,107.22 -15.66,69.99 158.33,108.27 217.79,123.28 293.54,74.15 943.28,72.42 1254.13,-4.92 172.3,-42.88 311.68,-111.3 84.71,-196.65 -84.21,-31.67 -123.23,-16.85 -113.68,-51.19l-17.36 33.3c-5.04,12.2 -9.56,20.8 -16.62,30.48 -13.94,19.14 -26.93,30.6 -42.74,44.73 -57.53,51.37 -155.66,134.21 -241.67,117.06 -60.9,-12.14 -54.85,-49.37 -88.96,-86.35 -78.03,8.83 -91.48,75.39 -201.75,76.46 -120.5,1.18 -118.26,-66.3 -201.83,-74.73 -25.53,41.36 -31.68,74.54 -89.17,86.21 -53.44,10.85 -101.31,-14.91 -135.43,-35.58 -95.25,-57.72 -122.41,-88.81 -170.94,-169.31z"/>
   <path class="fil6" d="M1276.32 2514.3c-5.94,6.52 -3.68,9.88 -8.5,16.48 62.07,34.81 26.07,116.7 26.55,186.64 11,8.43 -4.68,5.72 13.71,0.03 16.31,-17.3 18.22,-36.18 55.69,-41.73 37.5,-5.56 54.67,14.59 80,24.55 183.65,-151.29 169.21,194 171.59,209.7 13.24,8.67 20.75,12.82 39.85,16.89 -1.18,-90.12 -0.99,-544.02 -18.05,-595.67 -10.3,4.44 -1.7,4.04 -15.41,-0.41 -13.8,-4.49 0.3,0.53 -12.12,-6.54 -11.71,-6.67 -18.48,-11.09 -31.79,-16.74 -86.28,-36.63 -449.21,-157.29 -500.92,-160.89 5.29,112.04 33.92,109.87 169.5,176.78 102.8,50.72 126.58,124.51 29.87,190.92z"/>
   <path class="fil6" d="M1960.76 2335.35l-16.18 592.98 40.02 -12.85c19.5,-59 -9.31,-127.32 28.11,-200.58 26.65,-52.15 80.49,-71.55 130.94,-31.62l19.84 15.47c53.83,-29.02 79.39,-43.44 126.35,10.41l28.9 -10.61c-16.87,-71.29 -62,-66.14 7.94,-174.8l-8.44 -14.37c-10.5,-11.99 -11.03,-7.73 -22.55,-17.44 -11.68,-9.84 -13.24,-13.99 -24.31,-23.67 -6.17,18.3 11.85,9.34 -47.55,27.52 -47.13,14.42 -117.9,46.03 -155.7,48.29l0.32 -43.88c39.05,-17.04 148.38,-62.21 194.43,-65.23l5.8 -51.9c-37.87,12.9 -178.26,66.54 -201.48,61.4 -4.83,-55.25 5.57,-50.21 108.07,-84.71l118.74 -38.5c47.77,-8.46 37.33,10.25 37.84,11.57 43.96,-23.2 83.45,-38.38 124.49,-62.41 57.57,-33.71 64.65,-35.76 65.11,-120.23 -68.27,4.23 -397.1,120.74 -497.08,158.84 -17.88,6.81 -42.43,20.34 -63.61,26.31z"/>
   <path class="fil7" d="M1813.28 1403.58c24.12,-55.7 20.07,-116.44 91.54,-195.99 109.83,-122.26 263.81,-176.85 423.64,-108.83 102.39,43.58 117.27,90.53 164.69,133.03 41.53,3.5 43.81,-1.9 78.45,-8.6 15.98,-11.75 16.38,-14.63 35.1,-22.26 -17.26,-32.29 -28.73,-65.39 -46.11,-98.16 -31.41,-59.21 -15.03,-49.67 19.59,-94.24 44.05,-56.71 74.66,-143.21 65.45,-241.72 -13.05,-10 2.78,-1.37 -17.33,-6.9 -42.81,92.73 -86.19,140.58 -192.17,172.86 -157.88,48.1 -500.09,-65.77 -621.6,393.56 -4.63,17.52 -6.99,16.59 -7.99,39.52 -0.2,4.55 0.02,14.56 0.63,19.03l6.12 18.7z"/>
   <path class="fil7" d="M968.04 886.25c2.64,84.55 76.38,131.68 92.14,176.49l-60.18 128.12c24.64,31.09 49.41,43.03 103.57,45.72 56.02,-52.79 67.13,-85.85 154.01,-130.93 64.72,-33.58 160.36,-48.13 243.49,-25.06 102.13,28.35 190.9,105.73 241.63,194.22 19.61,34.2 28.1,70.22 44.16,100.52 27.86,-43.15 -53.92,-192.8 -73.08,-225.71 -38.44,-66.04 -100.27,-113.07 -169,-147.98 -83.52,-42.44 -147.63,-49.5 -262.63,-51.9 -25.7,-0.54 -117.59,-13.48 -139.56,-22.69 -20.16,-8.45 -94.58,-51.31 -100.91,-52.68 -38.87,-18.55 -35.54,-32.55 -54.53,-54.3 -17.8,-20.39 2.29,-5.74 -22.95,-15.25l3.83 81.44z"/>
   <path class="fil8" d="M973.08 714.8c-43.15,38.71 159.07,200.59 372.61,135.31 77.89,-23.82 80.25,-36.71 205.51,-70.01 157.33,-41.83 334.85,-45.86 495.94,-4.08 144.43,37.46 259.97,136.61 444.69,69.24 41.14,-15.01 160.74,-86.98 134.15,-131.29 -56.51,38.55 -76.91,67.39 -172.94,87.87 -241.16,51.42 -272.66,-120.72 -646.03,-123.55 -394.33,-2.99 -414.74,173.7 -653.85,124.06 -91.31,-18.95 -124.98,-50.23 -180.08,-87.55z"/>
   <path class="fil9" d="M818.31 2294.29l3.25 -83.2c9.42,8.47 4.87,2.74 11.73,13.91 0.99,1.62 6.35,11.9 7.2,13.86 30.45,69.6 26.79,106.08 98.15,190 42.56,50.06 82.39,79.15 147.63,100.63 31.71,10.44 54.59,21.85 67.64,6.05 -27.36,-13.25 -48.22,-21.5 -51.39,-52.23 57.96,-20.06 115.32,10.58 167.24,-38.44 -1.39,-1.32 -2.89,-3.33 -3.81,-4.3 -67.81,-71.83 -249.66,-50.13 -350.5,-284.12 -6.66,-15.45 -46.65,-152.98 -49.51,-153.81 -40.72,42.42 -53.03,214.91 -47.65,291.66z"/>
   <path class="fil10" d="M2337.1 2444.47c49.05,42.99 110.72,19.91 161.39,44.46 -6.74,40.54 -51.96,40.94 -86.87,66.47l144.12 -37.76c92.91,-45.49 146.2,-125.45 186.57,-216.55 30.94,-69.82 20.09,-94.75 33.56,-166.26 -6,-40.36 -14.36,-83.93 -32.94,-116.18l-16.17 0.2c-0.07,-0.45 -0.43,-1.01 -0.87,-0.97 -58.44,334.96 -293.07,357.07 -364.18,400.09 -24.13,14.6 -15.22,33.95 -21.34,21.76 -0.59,-1.18 -2.05,3.26 -3.28,4.74z"/>
   <path class="fil8" d="M1549.58 2031.99c25.08,20.04 100.85,53.6 134.11,75.57 71.11,46.98 84.62,80.14 116.59,104.04 40.29,-31.36 60.25,-66.79 112.23,-101.62 45.87,-30.74 96.07,-48.83 139.55,-77.8 11.07,-16.45 2.12,-17.76 -2.3,-20.6l-92.56 -28.77c-130.85,-32.37 -300.43,-26.04 -412.53,32.98l4.9 16.2z"/>
   <path class="fil11" d="M1704.43 2505.22l8.49 316.3c26.19,7.34 48.96,20.29 80.48,20.67 50.4,0.61 57.65,-16.47 99.53,-21.51l-1.33 51.48 -3.83 -0.02 8.7 -369.98c-92.9,18.81 -97.33,12.44 -192.04,3.05z"/>
   <path class="fil12" d="M1834.13 2285.86c64.3,-9.09 88.44,-40.56 143.06,-63.49 160.19,-67.28 297.52,-104.81 466.63,-158.33 -45.34,-98.6 -91.44,-64.11 -154.41,-48.07 -65.74,16.74 -123.99,35.99 -183.87,59.14 -89.96,34.79 -258.99,125.97 -271.4,210.75z"/>
   <path class="fil12" d="M1157.17 2063.5c106.43,34.52 207.54,58.54 312.02,98.05 51.85,19.61 171.52,59.82 216.04,92.46 25.25,18.5 39.65,26.96 82.78,30.17 -51.96,-156.89 -451.69,-292.92 -568.42,-288.76 -12.57,25.27 -32.61,42.01 -42.43,68.08z"/>
   <path class="fil13" d="M1709.27 1646.32c-30.41,-135.37 145.36,-153.28 169.3,-72.7 35.56,29 18.37,67.12 -5.1,107.19 -17.74,30.29 -44.61,71.33 -73.19,82.45 -32.74,-17.18 -70.43,-77.94 -91.01,-116.94zm-46.12 43.73c9.37,4.05 7.23,-6.6 5.85,13.79 52.25,36 98.93,183.77 192.03,85.63l35.97 -44.64c1.32,-1.54 5.26,-6.09 6.61,-7.56 12.21,-13.37 1.05,-2.43 11.19,-11.46l21.22 -31.92c6.69,-58.86 38.64,-77.14 -0.9,-147.15 -18.12,-32.09 -63.53,-71.12 -108.19,-78.25l-43.64 -1.72c-52.54,5.11 -90.34,39.66 -113.51,70.91 -48.55,65.49 -16.16,92.46 -6.63,152.37z"/>
   <path class="fil9" d="M2063.42 2751.02c-33.87,42.25 -20.48,243.51 47.35,255.52 33.72,5.97 90.62,-31.15 117.98,-49.05l89.06 -68.24c10.5,-29.5 25.93,-30.48 13,-63.16 -60.86,-10.31 -51.62,47.13 -102.89,31.03 -3.61,-2.23 -21.61,9.56 -11.15,-44.94 4.83,-25.13 8.13,-18.87 8.76,-49.81 -64.22,7.86 -33.42,82.92 -100.7,80.47 -33.07,-40.03 -6.77,-84.45 -42.05,-98.74 -9.48,8.4 2.17,2.8 -19.37,6.92z"/>
   <path class="fil14" d="M818.31 2294.29c6.78,113.43 58.45,208.65 118.38,257.62 50.57,41.3 216.63,111.06 263.35,24.26 -6.44,-26.71 -18.06,-29.54 -46.13,-40.63 -13.05,15.8 -35.93,4.39 -67.64,-6.05 -65.25,-21.47 -105.07,-50.57 -147.63,-100.63 -71.35,-83.92 -67.69,-120.4 -98.15,-190 -0.86,-1.96 -6.21,-12.24 -7.2,-13.86 -6.86,-11.17 -2.31,-5.44 -11.73,-13.91l-3.25 83.2z"/>
   <path class="fil14" d="M2411.62 2555.4c-65.53,50.56 146.78,121.48 287.35,-42.46 68.16,-79.48 115.96,-243.07 76.89,-378.12 -13.46,71.51 -2.61,96.44 -33.56,166.26 -40.37,91.1 -93.67,171.06 -186.57,216.55l-144.12 37.76z"/>
   <path class="fil15" d="M2665.07 1487.97c-5.28,20.05 -15.76,26.87 -24.26,59.59 -33.78,130.12 -50.14,193.23 -124.38,305.17 -16.48,24.86 -55.16,80.62 -79.76,97.08 17.7,28.56 49.17,71.84 76.6,85.8 29.43,-17.01 59.17,-83.89 75.14,-117.51 19.41,-40.83 36.28,-91.07 49.15,-139.2 20.08,-75.13 51.33,-276.11 23.87,-341.79l3.64 50.86z"/>
   <path class="fil16" d="M1163.26 1951.43c-29.78,-5.42 -7.67,4.06 -27.24,-16.25 -0.31,-0.33 -15.81,-20.15 -17.69,-22.6 -130.27,-171.82 -117.18,-222.23 -163.35,-374.08 -8.8,-28.94 -2.08,-20.36 -24.1,-24.12 -2.57,101.61 13.74,205.42 39.77,296.97 19.64,69.02 73.11,197.2 116.65,224.26 29.14,-14.96 56.99,-52.33 75.96,-84.17z"/>
   <path class="fil17" d="M2013.85 1501.11l50.68 2.09c28.71,-52.13 29.17,-107.5 112.44,-109.1 85.19,-1.65 84.74,57.26 119.07,106.81l52.26 -2.27c29.47,-97.57 -75.21,-190.31 -178.31,-185.81 -86.61,3.77 -195.46,97.95 -156.13,188.28z"/>
   <path class="fil10" d="M1373.31 2861.86c-1.76,1.59 18.26,17.2 -30.08,9.37 -22.11,-3.58 -25.38,-22.87 -59.61,-30.68 0.25,23.77 17.08,40.2 29.89,54.21 34.38,37.59 42.39,10.67 40.19,44.17 8.96,14.43 28.85,24.69 47.77,36.06 14.5,8.71 34.03,21.51 53.54,27.49 52.46,16.07 88.41,-20.24 86.95,-70.35 -10.08,-42.73 10.74,-172.76 -30.9,-183.67 -7.41,61.13 -38.92,139.47 -83.76,60 -14.79,-26.21 -7.86,-27.39 -37.31,-34.96l-5.47 16.19c-1.85,14.76 6.92,30.63 1.96,65.76 -11.49,8.52 -2.44,2.38 -10.5,6.63 -18.54,9.77 0.56,0.91 -2.66,-0.22z"/>
   <path class="fil17" d="M1254.01 1495.17l49.5 7.82c31.67,-43.17 24.52,-107.76 113.38,-110.86 90.96,-3.16 89.35,61.43 119.62,108.49 120.75,27.13 40.87,-164.31 -82.99,-184.95 -112.16,-18.68 -231.03,78.34 -199.51,179.5z"/>
   <path class="fil18" d="M1960.76 2335.35c21.19,-5.98 45.74,-19.5 63.61,-26.31 99.98,-38.1 428.81,-154.61 497.08,-158.84l-2.04 -42.95c-47.71,-5.56 -247.32,67.98 -301.53,86.12l-217.7 78.97c-31.91,13.74 -33.9,21.33 -39.42,63.02z"/>
   <path class="fil18" d="M1076.94 2146.6c51.7,3.61 414.63,124.27 500.92,160.89 13.31,5.65 20.07,10.07 31.79,16.74 12.42,7.07 -1.68,2.06 12.12,6.54 13.7,4.45 5.1,4.85 15.41,0.41 3.87,-54.44 -25.75,-53.8 -110.55,-86.17 -81.15,-30.97 -389.65,-146.32 -443.07,-137.69l-6.61 39.26z"/>
   <path class="fil19" d="M1308.09 2717.45c-18.39,5.69 -2.72,8.4 -13.71,-0.03 -0.48,-69.94 35.52,-151.83 -26.55,-186.64 4.81,-6.59 2.55,-9.95 8.5,-16.48l-13.89 6.9c15.47,152.61 -47.7,109.91 -130.27,162.59l5.47 65.3c68.98,51.3 91.39,17.03 163.96,15.43l6.5 -47.07z"/>
   <path class="fil20" d="M2289.85 2709.17l12.27 53.13c44.09,10.51 64.15,21.39 107.95,6.39 56.61,-19.38 59.18,-9.84 58.03,-84.9 -32.43,-18.72 -73.36,-19.5 -106.29,-50.09 -50.15,-46.59 -27.13,-61.55 -19.1,-116.09l-24.46 -8.24 8.44 14.37c-69.94,108.67 -24.8,103.51 -7.94,174.8l-28.9 10.61z"/>
   <path class="fil21" d="M2647.68 2177.11c17.06,-24.99 31.8,-63.41 43.03,-95.83 11.2,-32.33 13.16,-88.68 32.82,-108.16 -11.19,-29.09 -34.5,-71.78 -54.66,-88.87 -19.87,42.86 -35.5,84.2 -55.74,125.94 -36.47,75.21 -27.77,73.45 -30.38,167.76 32.87,-12.81 26.3,-24.23 56.3,-23.09l8.63 22.24z"/>
   <path class="fil21" d="M883.61 1960.67c5.28,9.93 12.05,81.59 22.72,109.79 14.39,38.03 21.68,63.35 44.96,97.5 32.77,-14.26 37.92,-1.85 66.35,10.83 -3.34,-116.43 11.62,-86.41 -28.6,-163.57 -14.98,-28.75 -45.88,-114.52 -62.7,-131.3 -15.51,27.11 -31.02,43.46 -42.73,76.75z"/>
   <path class="fil22" d="M1793.56 1540.43c18.88,13.43 16.3,21.46 14.89,53.79 -1.29,29.14 -0.1,37.5 -14.89,51.01 -11.26,-18.82 -31.34,-83.7 0,-104.8zm-84.28 105.89l-1.9 -33.15c16.03,9.52 4.04,-0.29 14.95,11.04 29.07,30.17 67.69,99.57 77.95,112.31 14.09,-5.88 10.22,-4.5 19.11,-15.57l42.4 -58.62c30.41,-47.3 4.79,-76.66 16.78,-88.71 -23.94,-80.57 -199.71,-62.67 -169.3,72.7z"/>
   <path class="fil23" d="M865.96 2002.63c2.86,0.83 42.85,138.36 49.51,153.81 100.84,233.99 282.7,212.3 350.5,284.12 0.91,0.97 2.42,2.98 3.81,4.3 22.31,-41.06 -30.03,-62.12 -60.96,-77 -35.13,-16.89 -66.39,-31.8 -102.63,-52.49 -52.59,-30.02 -140.93,-91.85 -154.9,-147.41 -23.29,-34.15 -30.58,-59.47 -44.96,-97.5 -10.67,-28.2 -17.43,-99.86 -22.72,-109.79l-17.65 41.96z"/>
   <path class="fil23" d="M2647.68 2177.11c-29.54,54.89 -96.44,104.57 -157.88,140.56 -46.17,27.04 -190.9,72.8 -152.7,126.81 1.22,-1.48 2.68,-5.91 3.28,-4.74 6.12,12.19 -2.8,-7.16 21.34,-21.76 71.1,-43.02 305.74,-65.14 364.18,-400.09 0.44,-0.04 0.8,0.52 0.87,0.97l16.17 -0.2 -19.41 -45.52c-19.66,19.48 -21.61,75.82 -32.82,108.16 -11.23,32.41 -25.97,70.83 -43.03,95.83z"/>
   <path class="fil24" d="M2268.69 2383.07c22.71,-18.2 34.6,-43.77 63.17,-50.24 -0.51,-1.33 9.93,-20.04 -37.84,-11.57l-118.74 38.5c-102.5,34.5 -112.9,29.46 -108.07,84.71 23.22,5.14 163.61,-48.5 201.48,-61.4z"/>
   <path class="fil16" d="M1914.8 1725.82c-10.14,9.03 1.02,-1.91 -11.19,11.46 -1.35,1.48 -5.29,6.02 -6.61,7.56l-35.97 44.64c-93.11,98.14 -139.78,-49.64 -192.03,-85.63 9.63,58.78 74.73,157.61 114,171.54 67.14,23.83 121.18,-93.95 131.8,-149.56z"/>
   <path class="fil25" d="M1847.41 2906.1c-29.7,30.05 -94,4.44 -130.09,1.77 -4.55,70.57 24.77,84.14 96.52,80.05 67.56,-3.85 73.87,-28.14 72.73,-92.47 -16.78,12.2 -14.24,11.89 -39.16,10.65z"/>
   <path class="fil26" d="M1701.15 2433.31c30.63,-0.71 60.46,9.61 99.13,9.37 40.98,-0.26 68.35,-12.05 100,-12.11l2.31 -56.37c-98.57,24.73 -107.18,20.49 -204.44,-0.29l3 59.4z"/>
   <path class="fil24" d="M2271.39 2468.27l-8.49 -33.3c-46.06,3.02 -155.39,48.19 -194.43,65.23l-0.32 43.88c37.8,-2.26 108.56,-33.87 155.7,-48.29 59.39,-18.18 41.37,-9.22 47.55,-27.52z"/>
   <path class="fil27" d="M1373.31 2861.86c3.22,1.13 -15.87,9.99 2.66,0.22 8.06,-4.25 -0.99,1.88 10.5,-6.63 4.96,-35.13 -3.81,-51 -1.96,-65.76l5.47 -16.19c29.46,7.57 22.52,8.75 37.31,34.96 44.84,79.48 76.35,1.14 83.76,-60 41.64,10.91 20.82,140.94 30.9,183.67 11.49,-14.29 11.39,-23.23 12.77,-53.09 1.02,-22.32 0.98,-45.5 -0.51,-67.79 -2.66,-40.15 -6.59,-79.84 -43.16,-88.44 -36.04,25.98 -11.59,72.98 -47.09,105.78 -40.87,-29.78 -30.86,-91.94 -92.04,-94.75 -29.07,38.18 4.19,77.18 1.39,128.02z"/>
   <path class="fil18" d="M1698.15 2373.92c97.27,20.78 105.88,25.02 204.44,0.29l1.3 -43.85c-93.24,27.67 -115.48,21.78 -207.51,-0.81l1.76 44.37z"/>
   <path class="fil28" d="M2571.59 1223.19c42.3,81.77 48.85,153.92 72.71,233.38 8.98,29.95 12.45,25.86 20.77,31.41l-3.64 -50.86c5.9,-71.71 -36.13,-172.82 -54.74,-236.18 -18.72,7.63 -19.12,10.51 -35.1,22.26z"/>
   <path class="fil7" d="M1709.27 1646.32c20.58,39 58.27,99.76 91.01,116.94 28.58,-11.11 55.45,-52.16 73.19,-82.45 23.48,-40.07 40.66,-78.19 5.1,-107.19 -11.99,12.05 13.63,41.41 -16.78,88.71l-42.4 58.62c-8.9,11.07 -5.02,9.69 -19.11,15.57 -10.27,-12.74 -48.89,-82.14 -77.95,-112.31 -10.92,-11.33 1.08,-1.53 -14.95,-11.04l1.9 33.15z"/>
   <path class="fil29" d="M1800.37 2457.44c-31.83,0.43 -59.33,-7.97 -89.57,-9.76 -5.19,55.83 23.57,49.97 76.31,54.4 37.74,3.17 82.26,-2.48 106.34,-19.34l0.7 -36.27c-34.07,0.67 -59.43,10.51 -93.78,10.96z"/>
   <path class="fil30" d="M1847.41 2906.1c5.43,-5.67 -4.33,0.2 13.54,-11.72 1.22,-0.81 9.94,-4.46 11.11,-5.46 18.21,-15.48 12.79,-16.44 12.38,-47.97 -29.56,2.7 -43.36,12 -77.31,13.52 -29.82,1.33 -54.7,-5.34 -84.59,-6.49 0.58,82.01 66.78,50.28 124.87,58.12z"/>
   <path class="fil31" d="M2063.42 2751.02c21.54,-4.12 9.89,1.48 19.37,-6.92 35.28,14.29 8.98,58.71 42.05,98.74 67.28,2.45 36.47,-72.61 100.7,-80.47 -0.63,30.94 -3.93,24.69 -8.76,49.81 -10.47,54.5 7.53,42.7 11.15,44.94 -5.4,-49.02 22.5,-74.35 7.22,-120.61 -72.26,7.07 -57.81,78.59 -102.96,99.31 -24.94,-46.13 4.56,-112.65 -55.94,-110.52l-12.81 25.72z"/>
   <path class="fil32" d="M1710.8 2447.68c30.24,1.79 57.74,10.19 89.57,9.76 34.35,-0.45 59.7,-10.3 93.78,-10.96l-0.7 36.27c-24.07,16.87 -68.6,22.52 -106.34,19.34 -52.74,-4.43 -81.5,1.43 -76.31,-54.4zm-6.37 57.54c94.71,9.39 99.13,15.76 192.04,-3.05l3.82 -71.6c-31.64,0.06 -59.01,11.85 -100,12.11 -38.68,0.24 -68.5,-10.08 -99.13,-9.37l3.27 71.91z"/>
   <path class="fil33" d="M1847.41 2906.1c-58.1,-7.84 -124.29,23.89 -124.87,-58.12 29.89,1.15 54.77,7.83 84.59,6.49 33.94,-1.53 47.75,-10.82 77.31,-13.52 0.41,31.53 5.83,32.49 -12.38,47.97 -1.17,1 -9.9,4.65 -11.11,5.46 -17.87,11.93 -8.1,6.05 -13.54,11.72zm-130.09 1.77c36.09,2.67 100.39,28.28 130.09,-1.77 24.91,1.24 22.38,1.55 39.16,-10.65l5.02 -23.28 1.33 -51.48c-41.87,5.04 -49.13,22.12 -99.53,21.51 -31.52,-0.38 -54.28,-13.33 -80.48,-20.67l4.4 86.35z"/>
   <path class="fil34" d="M2227.91 2857.12c51.27,16.09 42.03,-41.35 102.89,-31.03 12.93,32.67 -2.49,33.65 -13,63.16 46.99,-16.54 33.72,-50.76 18.82,-75.29 -64.33,-13.12 -41.37,17.27 -94,27.28 2.58,-40.42 16.63,-58.44 11.13,-99.97l-18.61 -4.75c15.28,46.26 -12.63,71.59 -7.22,120.61z"/>
   <path class="fil27" d="M1353.69 2938.93c2.21,-33.5 -5.81,-6.59 -40.19,-44.17 -12.81,-14.01 -29.65,-30.44 -29.89,-54.21 34.23,7.81 37.51,27.1 59.61,30.68 48.33,7.83 28.32,-7.78 30.08,-9.37 -34.01,-4.28 -29.8,-6.9 -50.44,-23.59 -40.25,-32.57 -89.44,-12.33 -31.71,51.96 17.3,19.28 35.72,38.62 62.54,48.7z"/>
   <path class="fil28" d="M1740.43 787.2l-0.18 50.6c55.48,20.33 74.73,-12.65 51.46,-55.44 -19.43,-5.46 -36.51,-6.41 -51.28,4.84z"/>
   <path class="fil35" d="M968.04 886.25l-3.83 -81.44c25.24,9.51 5.15,-5.14 22.95,15.25 19,21.75 15.67,35.75 54.53,54.3 -4.63,-23.55 -32.55,-44.15 -45.63,-63.19 -19.08,-27.76 -18.97,-45 -38.2,-69.48 -8.78,37.72 -12.2,115.81 10.19,144.56z"/>
   <path class="fil36" d="M1793.56 1540.43c-31.34,21.1 -11.26,85.98 0,104.8 14.79,-13.51 13.6,-21.87 14.89,-51.01 1.41,-32.33 3.99,-40.36 -14.89,-53.79z"/>
  </g>
 </g>
</svg>
